<?xml version="1.0" standalone="no"?>
<!DOCTYPE svg PUBLIC "-//W3C//DTD SVG 20010904//EN"
 "http://www.w3.org/TR/2001/REC-SVG-20010904/DTD/svg10.dtd">
<svg version="1.0" xmlns="http://www.w3.org/2000/svg"
 width="512.000000pt" height="512.000000pt" viewBox="0 0 512.000000 512.000000"
 preserveAspectRatio="xMidYMid meet">
<metadata>
Created by potrace 1.15, written by Peter Selinger 2001-2017
</metadata>
<g transform="translate(0.000000,512.000000) scale(0.100000,-0.100000)"
fill="#000000" stroke="none">
<path d="M465 5110 c-3 -5 -16 -10 -28 -10 -65 -1 -188 -69 -268 -149 -80 -80
-148 -203 -149 -268 0 -12 -4 -25 -10 -28 -14 -9 -14 -4181 0 -4190 5 -3 10
-18 10 -32 0 -14 18 -64 41 -111 32 -67 56 -101 115 -158 41 -41 79 -74 84
-74 5 0 26 -10 47 -22 49 -29 101 -48 135 -48 15 0 30 -5 33 -10 9 -14 4161
-14 4170 0 3 5 18 10 33 10 70 1 188 65 273 150 51 51 78 89 108 153 23 46 41
96 41 110 0 14 5 29 10 32 7 4 10 713 10 2095 0 1382 -3 2091 -10 2095 -5 3
-10 16 -10 28 -1 66 -70 189 -151 269 -82 81 -202 147 -266 148 -12 0 -25 5
-28 10 -4 7 -713 10 -2095 10 -1382 0 -2091 -3 -2095 -10z m2365 -985 c211
-35 361 -113 495 -256 142 -152 216 -394 186 -612 -16 -115 -24 -143 -69 -237
-44 -93 -167 -220 -254 -265 -32 -17 -58 -35 -58 -42 0 -6 25 -17 55 -24 31
-7 58 -16 61 -21 3 -4 12 -8 21 -8 25 0 153 -69 213 -115 98 -75 176 -172 223
-276 57 -126 72 -197 70 -349 -2 -301 -112 -546 -319 -710 -76 -61 -196 -126
-274 -149 -25 -7 -56 -17 -70 -21 -14 -5 -63 -16 -110 -25 -73 -13 -168 -15
-675 -13 l-590 3 -68 33 c-72 36 -111 77 -151 162 l-21 45 -3 1289 c-2 855 1
1308 8 1345 21 117 113 212 236 246 73 20 975 20 1094 0z"/>
<path d="M2160 3220 l0 -330 193 0 c272 1 357 26 432 128 48 66 65 122 65 218
0 124 -38 198 -134 258 -76 49 -121 56 -350 56 l-206 0 0 -330z"/>
<path d="M2168 2304 c-5 -4 -8 -169 -8 -367 l0 -359 323 4 322 3 77 38 c83 40
132 88 168 164 45 96 49 221 10 310 -38 87 -109 142 -250 193 -39 14 -630 27
-642 14z"/>
</g>
</svg>
